<svg width="22" height="22" viewBox="0 0 22 22" fill="none" xmlns="http://www.w3.org/2000/svg">
<path d="M17.9896 2.75H14.2083V2.0625C14.2083 0.925247 13.283 0 12.1458 0H9.39581C8.25856 0 7.33331 0.925247 7.33331 2.0625V2.75H3.55206C2.60435 2.75 1.83331 3.52104 1.83331 4.46875V6.875C1.83331 7.25467 2.14114 7.5625 2.52081 7.5625H2.89654L3.49049 20.0356C3.54295 21.1371 4.44788 22 5.55063 22H15.991C17.0938 22 17.9987 21.1371 18.0512 20.0356L18.6451 7.5625H19.0208C19.4005 7.5625 19.7083 7.25467 19.7083 6.875V4.46875C19.7083 3.52104 18.9373 2.75 17.9896 2.75ZM8.70831 2.0625C8.70831 1.68343 9.01674 1.375 9.39581 1.375H12.1458C12.5249 1.375 12.8333 1.68343 12.8333 2.0625V2.75H8.70831V2.0625ZM3.20831 4.46875C3.20831 4.27921 3.36252 4.125 3.55206 4.125H17.9896C18.1791 4.125 18.3333 4.27921 18.3333 4.46875V6.1875C18.1215 6.1875 4.0863 6.1875 3.20831 6.1875V4.46875ZM16.6777 19.9702C16.6602 20.3374 16.3585 20.625 15.991 20.625H5.55063C5.18302 20.625 4.88139 20.3374 4.86394 19.9702L4.27308 7.5625H17.2685L16.6777 19.9702Z" fill="#DCDCDC"/>
<path d="M11 19.25C11.3797 19.25 11.6875 18.9422 11.6875 18.5625V9.625C11.6875 9.24532 11.3797 8.9375 11 8.9375C10.6203 8.9375 10.3125 9.24532 10.3125 9.625V18.5625C10.3125 18.9422 10.6203 19.25 11 19.25Z" fill="#DCDCDC"/>
<path d="M14.4375 19.25C14.8172 19.25 15.125 18.9422 15.125 18.5625V9.625C15.125 9.24532 14.8172 8.9375 14.4375 8.9375C14.0578 8.9375 13.75 9.24532 13.75 9.625V18.5625C13.75 18.9422 14.0578 19.25 14.4375 19.25Z" fill="#DCDCDC"/>
<path d="M7.5625 19.25C7.94217 19.25 8.25 18.9422 8.25 18.5625V9.625C8.25 9.24532 7.94217 8.9375 7.5625 8.9375C7.18283 8.9375 6.875 9.24532 6.875 9.625V18.5625C6.875 18.9422 7.18279 19.25 7.5625 19.25Z" fill="#DCDCDC"/>
</svg>
