<svg width="48" height="48" viewBox="0 0 48 48" fill="none" xmlns="http://www.w3.org/2000/svg">
<path d="M37.263 13.2247C37.263 13.2247 39.9906 12.5611 39.3663 15.123C39.126 16.1806 37.8939 19.8202 36.7556 23.7877L33.1516 35.5036C33.1516 35.5036 32.7314 37.237 31.4038 37.3398C30.0763 37.4426 28.3753 35.7645 28.0683 35.4028C27.8203 35.1288 23.3189 30.8941 21.8083 28.9332C21.3833 28.3963 20.9599 27.3901 22.2662 26.5014L30.9372 20.0488C31.9351 19.2677 33.1264 17.2652 29.1621 19.2981L18.0644 24.9751C18.0644 24.9751 16.8064 25.5584 14.7833 24.5336L10.406 22.2751C10.406 22.2751 8.88179 20.8599 11.9768 20.1761C19.6516 17.7135 28.9729 15.4334 37.263 13.2247Z" fill="#999999"/>
</svg>
